<svg width="14" height="13" fill="none" xmlns="http://www.w3.org/2000/svg"><path opacity=".2" fill-rule="evenodd" clip-rule="evenodd" d="M0 11.7c0 .7.6 1.3 1.3 1.3H9c2 0 3.4-.5 4-2l1-3.6c.2-1-.6-2-1.8-2H9.8c-.2 0-.3-.2-.2-.3l.2-1 .2-1.9c0-.7-.4-1.2-1-1.6L8.2 0A1 1 0 0 0 7 .6l-2 4.2c-.2.3-.6.6-1 .6H1.3C.6 5.4 0 6 0 6.7v5Zm9 0c1.5 0 2.2-.2 2.6-1h-.3a.7.7 0 0 1-.6-.6c0-.3.3-.6.6-.6h.7l.2-.6h-.5a.7.7 0 0 1-.7-.7c0-.3.3-.6.7-.6h.8l.2-.5c0-.3-.1-.4-.5-.4H9.8c-1 0-1.7-1-1.5-1.9a232.6 232.6 0 0 0 .4-2.6c0-.2-.2-.4-.5-.6L8 1.4l-2 4c-.3.7-1.2 1.2-2 1.3v5h5Zm-6.3-5H1.3v5h1.4v-5Z" fill="#000"/></svg>