<svg width="44" height="28" fill="none" xmlns="http://www.w3.org/2000/svg"><rect opacity=".3" width="44" height="28" rx="14" fill="#EBEBEB"/><g filter="url(#a)"><path fill-rule="evenodd" clip-rule="evenodd" d="M30 26a12 12 0 1 0 0-24 12 12 0 0 0 0 24Z" fill="#2196F3"/><path d="M41.7 14a11.7 11.7 0 1 1-23.4 0 11.7 11.7 0 0 1 23.4 0Z" stroke="url(#b)" stroke-width=".6"/><path d="M41.7 14a11.7 11.7 0 1 1-23.4 0 11.7 11.7 0 0 1 23.4 0Z" stroke="url(#c)" stroke-width=".6"/></g><defs><linearGradient id="b" x1="18.1" y1="2" x2="18.1" y2="25.8" gradientUnits="userSpaceOnUse"><stop stop-opacity="0"/><stop offset=".8" stop-opacity="0"/><stop offset="1" stop-opacity="0"/></linearGradient><linearGradient id="c" x1="18" y1="2" x2="18" y2="26" gradientUnits="userSpaceOnUse"><stop stop-color="#fff" stop-opacity=".1"/><stop offset=".2" stop-color="#fff" stop-opacity=".1"/><stop offset="1" stop-color="#fff" stop-opacity="0"/></linearGradient><filter id="a" x="17" y="1" width="26" height="27" filterUnits="userSpaceOnUse" color-interpolation-filters="sRGB"><feFlood flood-opacity="0" result="BackgroundImageFix"/><feColorMatrix in="SourceAlpha" values="0 0 0 0 0 0 0 0 0 0 0 0 0 0 0 0 0 0 127 0" result="hardAlpha"/><feOffset dy="1"/><feGaussianBlur stdDeviation=".5"/><feColorMatrix values="0 0 0 0 0 0 0 0 0 0 0 0 0 0 0 0 0 0 0.237602 0"/><feBlend in2="BackgroundImageFix" result="effect1_dropShadow_0_585"/><feColorMatrix in="SourceAlpha" values="0 0 0 0 0 0 0 0 0 0 0 0 0 0 0 0 0 0 127 0" result="hardAlpha"/><feOffset/><feGaussianBlur stdDeviation=".5"/><feColorMatrix values="0 0 0 0 0 0 0 0 0 0 0 0 0 0 0 0 0 0 0.12 0"/><feBlend in2="effect1_dropShadow_0_585" result="effect2_dropShadow_0_585"/><feBlend in="SourceGraphic" in2="effect2_dropShadow_0_585" result="shape"/></filter></defs></svg>